<svg width="60" height="60" viewBox="0 0 60 60" fill="none" xmlns="http://www.w3.org/2000/svg">
<g clip-path="url(#clip0_2619_63436)">
<path d="M0.600586 30C0.600586 46.2331 13.7617 59.4 30.0006 59.4C46.2395 59.4 59.4006 46.2389 59.4006 30C59.4006 13.7611 46.2395 0.600006 30.0006 0.600006C13.7617 0.600006 0.600586 13.7611 0.600586 30Z" fill="#A2AFC3" fill-opacity="0.4"/>
<path fill-rule="evenodd" clip-rule="evenodd" d="M13.8256 19.5512C13.2054 19.7226 12.75 20.291 12.75 20.9657V41.5092L12.754 41.6187C12.81 42.378 13.4438 42.9766 14.2174 42.9766H34.7609L34.8704 42.9726C35.4965 42.9264 36.0133 42.4874 36.1754 41.901L13.8256 19.5512ZM44.6305 38.901L38.4287 32.6992V26.8349L44.0548 23.7662C45.1307 23.1794 46.4994 23.8839 46.4994 25.0245V37.4497C46.4994 38.3931 45.5631 39.0382 44.6305 38.901ZM36.2283 30.4988L25.2278 19.4984H34.7609C35.5345 19.4984 36.1682 20.097 36.2242 20.8562L36.2283 20.9657V30.4988Z" fill="#F3F7FF"/>
<path d="M15.501 15.5011L44.501 44.5011" stroke="#F3F7FF" stroke-width="2.025" stroke-linecap="round" stroke-linejoin="round"/>
</g>
<defs>
<clipPath id="clip0_2619_63436">
<rect width="58.8" height="58.8" fill="white" transform="translate(0.599609 0.600006)"/>
</clipPath>
</defs>
</svg>
