<svg width="48" height="48" viewBox="0 0 48 48" fill="none" xmlns="http://www.w3.org/2000/svg">
<rect y="48" width="48" height="48" rx="24" transform="rotate(-90 0 48)" fill="#F2F4F6"/>
<path d="M27.7029 31.1404C27.6056 31.492 27.2971 31.7561 26.9216 31.7839L26.8552 31.7859H14.53C14.0659 31.7859 13.6848 31.4269 13.6511 30.9714L13.6492 30.905V18.5798C13.6492 18.1756 13.9214 17.8336 14.2927 17.7302L27.7029 31.1404ZM32.4324 20.2595C33.0778 19.9075 33.899 20.3302 33.8992 21.0144V28.4695C33.8992 29.0362 33.3363 29.4221 32.7761 29.3386L29.0564 25.6189V22.1013L32.4324 20.2595ZM26.8552 17.699C27.3193 17.699 27.7004 18.058 27.7341 18.5134L27.7361 18.5798V24.2986L21.1365 17.699H26.8552Z" fill="#F53F3F"/>
<path d="M15.2998 15.3007L32.6998 32.7007" stroke="#F53F3F" stroke-width="1.215" stroke-linecap="round" stroke-linejoin="round"/>
</svg>
