<svg width="48" height="48" viewBox="0 0 48 48" fill="none" xmlns="http://www.w3.org/2000/svg">
<path d="M24 48C10.7452 48 -4.69686e-07 37.2548 -1.04907e-06 24C-1.62846e-06 10.7452 10.7452 3.34501e-06 24 2.76562e-06C37.2548 2.18624e-06 48 10.7452 48 24C48 37.2548 37.2548 48 24 48Z" fill="#F2F4F6"/>
<path d="M33.5579 22.5578C32.7192 21.719 31.0776 21.1949 29.848 20.9031C28.2015 20.5121 26.2355 20.2831 24.3123 20.258H24.3053L23.6866 20.2581C21.7634 20.283 19.7974 20.5122 18.1508 20.9031C16.9213 21.195 15.2796 21.719 14.4409 22.5578C13.5433 23.4554 13.2325 25.0499 13.1405 25.6937C13.0687 26.1961 12.8842 27.8853 13.5234 28.5245C13.7858 28.7869 14.2403 28.8978 14.9971 28.884C15.6663 28.8719 16.405 28.7638 16.9069 28.6752C17.5808 28.5563 18.2524 28.3979 18.7983 28.2292C19.6821 27.956 19.9654 27.7433 20.1017 27.607C20.3767 27.332 20.4716 26.9498 20.3837 26.4712C20.3259 26.1561 20.1988 25.8353 20.0761 25.5252C19.9932 25.316 19.8608 24.982 19.8428 24.8222C20.0053 24.7218 20.4582 24.54 21.3629 24.3685C22.2058 24.2086 23.1907 24.1069 23.9995 24.0961C24.808 24.1068 25.793 24.2084 26.6361 24.3685C27.5404 24.54 27.9934 24.7217 28.156 24.8222C28.1379 24.982 28.0057 25.3159 27.9228 25.5251C27.7999 25.8352 27.6728 26.156 27.615 26.4712C27.5272 26.9498 27.6221 27.332 27.8972 27.607C28.0334 27.7432 28.3168 27.956 29.2006 28.2292C29.7464 28.3979 30.4181 28.5563 31.0919 28.6752C31.5938 28.7637 32.3326 28.8719 33.0018 28.8841C33.7585 28.8978 34.2129 28.7869 34.4754 28.5245C35.1146 27.8853 34.9301 26.1962 34.8583 25.6938C34.7663 25.0499 34.4555 23.4554 33.5579 22.5578Z" fill="#F53F3F"/>
</svg>
