<svg width="103" height="24" viewBox="0 0 103 24" fill="none" xmlns="http://www.w3.org/2000/svg">
<path d="M20.6111 11.7519L17.2661 22.5305C17.2176 22.7414 17.3873 22.9757 17.6297 22.9757H24.3196C24.562 22.9757 24.7317 22.7648 24.6832 22.5305L21.314 11.7519C21.2413 11.4004 20.6838 11.4004 20.6111 11.7519Z" fill="#37E2E2"/>
<path d="M2.09284 17.0956L0.00829114 22.5552C-0.0401868 22.7661 0.129486 22.977 0.371876 22.977H4.51673C4.75912 22.977 4.92879 22.7661 4.88031 22.5552L2.79576 17.0956C2.72305 16.7207 2.1898 16.7207 2.09284 17.0956Z" fill="#37E2E2"/>
<path d="M6.65275 6.43353L2.04735 22.5312C1.99888 22.742 2.16855 22.9764 2.41094 22.9764H11.6217C11.8641 22.9764 12.0338 22.7655 11.9853 22.5312L7.37992 6.43353C7.28296 6.08205 6.7497 6.08205 6.65275 6.43353Z" fill="#1678FF"/>
<path d="M14.4036 0.281181L7.88329 22.5314C7.83481 22.7423 8.00449 22.9766 8.24688 22.9766H21.2632C21.5056 22.9766 21.6753 22.7657 21.6268 22.5314L15.1065 0.281181C15.0095 -0.0937271 14.4763 -0.0937271 14.4036 0.281181Z" fill="#1678FF"/>
<path d="M10.0929 9.1054L6.11767 22.5553C6.06919 22.7662 6.23886 23.0005 6.48125 23.0005H14.4316C14.674 23.0005 14.8437 22.7896 14.7952 22.5553L10.7958 9.1054C10.7231 8.73049 10.1656 8.73049 10.0929 9.1054Z" fill="#37E2E2"/>
<path d="M101.887 13.3672C101.936 13.3672 101.985 13.4132 101.985 13.4591V14.5857C101.985 14.6317 101.936 14.6777 101.887 14.6777L95.5361 14.6771V15.3213L101.644 15.3215C101.693 15.3215 101.742 15.3675 101.742 15.4135V16.5401C101.742 16.5861 101.693 16.6321 101.644 16.6321L95.5361 16.6317V17.2521L102.423 17.2528C102.471 17.2528 102.52 17.2988 102.52 17.3448V18.4714C102.52 18.5174 102.471 18.5634 102.423 18.5634L95.5361 18.5625L95.5369 20.0578C95.5369 20.4161 95.2507 20.7165 94.8844 20.764L94.7826 20.7706H91.352C91.279 20.7706 91.2303 20.7246 91.2547 20.6556L91.5953 19.506C91.6196 19.4141 91.6926 19.3681 91.7899 19.3681H93.1038C93.2011 19.3681 93.2984 19.2761 93.2984 19.1842L93.2984 18.5625L86.4128 18.5634C86.3641 18.5634 86.3155 18.5174 86.3155 18.4714V17.3448C86.3155 17.2988 86.3641 17.2528 86.4128 17.2528L93.2984 17.2521V16.6317L87.1916 16.6321C87.143 16.6321 87.0943 16.5861 87.0943 16.5401V15.4135C87.0943 15.3675 87.143 15.3215 87.1916 15.3215L93.2984 15.3213V14.6771L86.9724 14.6777C86.8994 14.6777 86.8751 14.6317 86.8751 14.5857V13.4591C86.8751 13.4132 86.9238 13.3672 86.9724 13.3672H101.887ZM82.7388 4.99814C82.8362 4.99814 82.9335 5.0901 82.9335 5.18207V20.5867C82.9335 20.6786 82.8605 20.7476 82.7388 20.7476H80.914C80.8167 20.7476 80.7194 20.6556 80.7194 20.5637V5.18207C80.7194 5.0901 80.8167 4.99814 80.914 4.99814H82.7388ZM41.3522 4.69922C41.4495 4.69922 41.5469 4.76819 41.5469 4.88315V10.907H41.5225C41.4252 15.4594 45.6345 18.5174 48.1162 18.6783C48.2135 18.6783 48.3109 18.7703 48.3109 18.8623V20.5177C48.3109 20.6097 48.2135 20.7016 48.1162 20.7016C46.2671 20.5867 44.1503 19.644 42.5444 18.1955C41.8371 17.5497 41.0647 16.6583 40.4632 15.4855C39.8633 16.6583 39.091 17.5497 38.3836 18.1955C36.7778 19.644 34.661 20.5867 32.8118 20.7016C32.7145 20.7016 32.6172 20.6097 32.6172 20.5177V18.8623C32.6172 18.7703 32.7145 18.6783 32.8118 18.6783C35.2936 18.5174 39.5028 15.4594 39.4055 10.907H39.3812V4.88315C39.3812 4.76819 39.4785 4.69922 39.5758 4.69922H41.3522ZM59.6977 4.99814C59.795 4.99814 59.8924 5.06711 59.8924 5.18207L59.8923 18.6549H63.9058L63.9067 6.97544C63.9067 6.88347 64.004 6.79151 64.1014 6.79151H65.8289C65.9262 6.79151 66.0235 6.88347 66.0235 6.97544V20.4717C66.0235 20.5637 65.9505 20.6556 65.8289 20.6556H51.8629C51.7656 20.6556 51.6683 20.5637 51.6683 20.4717V6.97544C51.6683 6.88347 51.7656 6.79151 51.8629 6.79151H53.5904C53.6877 6.79151 53.7851 6.88347 53.7851 6.97544L53.7849 18.6549H57.7747L57.7756 5.18207C57.7756 5.0901 57.8486 4.99814 57.9702 4.99814H59.6977ZM77.4836 5.36596C77.5809 5.36596 77.6783 5.45793 77.6783 5.5499V11.1599C77.6783 11.2519 77.5809 11.3439 77.4836 11.3439H71.5469C71.4982 11.3439 71.4495 11.3898 71.4495 11.4358V13.0912C71.4495 13.1372 71.4982 13.1832 71.5469 13.1832H77.4836C77.5809 13.1832 77.6783 13.2752 77.6783 13.3672V20.0119C77.6783 20.2878 77.4349 20.5407 77.1186 20.5407H70.5006C70.4277 20.5407 70.379 20.4717 70.4033 20.4257L70.8169 18.6783C70.8413 18.6094 70.9143 18.5404 71.0116 18.5404H75.3668C75.4641 18.5404 75.5615 18.4484 75.5615 18.3564V15.2985C75.5615 15.2525 75.5128 15.2065 75.4641 15.2065H69.5274C69.4301 15.2065 69.3328 15.1145 69.3328 15.0226V9.55049C69.3328 9.45852 69.4301 9.36656 69.5274 9.36656H75.4641C75.5128 9.36656 75.5615 9.32057 75.5615 9.27459V7.45823C75.5615 7.41224 75.5128 7.36626 75.4641 7.36626H69.5274C69.4301 7.36626 69.3328 7.27429 69.3328 7.18232V5.5499C69.3328 5.43494 69.4301 5.36596 69.5517 5.36596H77.4836ZM88.7486 7.18237C88.7972 7.18237 88.8459 7.22833 88.8459 7.27431C88.836 7.39247 88.8199 7.50741 88.798 7.61895L94.3203 7.61919C94.442 7.61919 94.515 7.68817 94.5393 7.78014V12.3095C94.5393 12.7234 94.1987 13.0453 93.7607 13.0453H91.7656C91.6926 13.0453 91.6439 12.9763 91.6683 12.9303L91.9846 11.6198C92.0089 11.5738 92.0332 11.5508 92.0819 11.5508H92.6415C92.6902 11.5508 92.7388 11.5048 92.7388 11.4588V8.99871C92.7388 8.95272 92.6902 8.90674 92.6415 8.90674L88.1662 8.90791C88.0263 9.06369 87.8677 9.20204 87.6929 9.3214L91.3276 9.32062C91.425 9.32062 91.5223 9.41259 91.5223 9.50455V12.0337C91.5223 12.1256 91.425 12.2176 91.3276 12.2176H87.0697C86.9724 12.2176 86.8751 12.1256 86.8751 12.0337L86.8757 9.70517C86.6751 9.76435 86.4634 9.80519 86.2425 9.82642C86.1938 9.82642 86.1452 9.78046 86.1452 9.73447V8.24C86.1452 8.19401 86.1938 8.14803 86.2425 8.14803C86.5101 8.12504 86.9724 8.03305 87.0941 7.27431C87.0941 7.22833 87.1427 7.18237 87.1914 7.18237H88.7486ZM98.1892 4.97512C98.2622 4.97512 98.3109 5.02111 98.2865 5.09008C98.2805 5.30356 98.2543 5.51105 98.2098 5.71097L102.204 5.71084C102.252 5.71084 102.301 5.75682 102.301 5.80281V7.20532C102.301 7.2513 102.252 7.29728 102.204 7.29728L101.577 7.29674C101.589 8.10659 101.507 9.6663 100.383 10.9837C101.064 11.202 101.804 11.2979 102.52 11.2979C102.569 11.2979 102.617 11.3439 102.617 11.3899V12.9073C102.617 12.9533 102.569 12.9993 102.52 12.9993C101.091 12.9993 99.8211 12.713 98.7757 12.1888C97.796 12.6664 96.5813 12.9232 95.1476 12.9533C95.0989 12.9533 95.0503 12.9073 95.0503 12.8613L95.0259 11.2979C95.0259 11.2519 95.0746 11.2059 95.1233 11.2059C95.8691 11.1855 96.5286 11.097 97.0973 10.9404C96.4464 10.2361 96.001 9.3708 95.8045 8.37793C95.8045 8.30895 95.8289 8.26297 95.9019 8.26297H97.5564C97.605 8.26297 97.6537 8.28596 97.678 8.33194C97.8663 9.06686 98.2446 9.64301 98.7417 10.084L98.7972 10.0333C99.6709 9.16642 99.7407 7.96598 99.7282 7.29701L97.3222 7.2982C96.755 7.85113 95.9777 8.20611 95.0992 8.26297C95.0505 8.26297 95.0019 8.21698 95.0019 8.171V6.60755C95.0019 6.56157 95.0262 6.51558 95.0749 6.51558C95.8291 6.42361 96.3887 5.82582 96.4374 5.06709C96.4374 5.02111 96.486 4.97512 96.5347 4.97512H98.1892ZM35.7075 7.15933C35.7318 7.94106 35.8534 9.75742 36.2427 12.6084C36.2671 12.7234 36.1697 12.8153 36.0481 12.8153H34.053C33.9556 12.8153 33.8826 12.7464 33.8583 12.6544C33.469 9.78041 33.3717 7.98704 33.323 7.18232C33.323 7.06736 33.396 6.99839 33.5177 6.99839H35.5128C35.6101 6.9754 35.7075 7.06736 35.7075 7.15933ZM45.397 6.99594L45.4639 6.99839H47.4347C47.5564 6.99839 47.6294 7.06736 47.6294 7.18232C47.5807 7.96405 47.4834 9.75742 47.0941 12.6084C47.0697 12.7004 46.9967 12.7694 46.8994 12.7694H44.9043C44.7826 12.7694 44.6853 12.6774 44.7096 12.5624C45.0989 9.73443 45.2206 7.94106 45.2449 7.15933C45.2449 7.06736 45.3179 6.9754 45.4639 6.99839L45.397 6.99594ZM89.9408 10.3323H88.4809C88.4323 10.3323 88.3836 10.3782 88.3836 10.4242V11.114C88.3836 11.16 88.4323 11.206 88.4809 11.206H89.9408C89.9894 11.206 90.0381 11.16 90.0381 11.114V10.4242C90.0381 10.3782 89.9894 10.3323 89.9408 10.3323ZM89.5758 4.99814C89.6245 4.99814 89.6731 5.0441 89.6731 5.09008L89.6729 5.34251H91.5955L91.5955 5.09008C91.5955 5.0441 91.6442 4.99814 91.6929 4.99814H93.5177C93.5663 4.99814 93.615 5.0441 93.615 5.09008L93.6146 5.34251L94.734 5.34302C94.7826 5.34302 94.8313 5.38898 94.8313 5.43496V6.72253C94.8313 6.76852 94.7826 6.81448 94.734 6.81448L93.6146 6.81394L93.615 6.90647C93.615 6.95245 93.5663 6.99843 93.5177 6.99843H91.6929C91.6442 6.99843 91.5955 6.95245 91.5955 6.90647L91.5955 6.81394H89.6729L89.6731 6.90647C89.6731 6.95245 89.6245 6.99843 89.5758 6.99843H87.751C87.7023 6.99843 87.6537 6.95245 87.6537 6.90647L87.6529 6.81394L86.5101 6.81448C86.4615 6.81448 86.4371 6.76852 86.4371 6.72253V5.43496C86.4371 5.38898 86.4858 5.34302 86.5345 5.34302L87.6529 5.34251L87.6537 5.09008C87.6537 5.0441 87.7023 4.99814 87.751 4.99814H89.5758Z" fill="#020814"/>
</svg>
