<svg width="48" height="48" viewBox="0 0 48 48" fill="none" xmlns="http://www.w3.org/2000/svg">
<rect y="48" width="48" height="48" rx="24" transform="rotate(-90 0 48)" fill="#F2F4F6"/>
<path d="M14.3063 27.7765C14.7074 27.499 15.2581 27.599 15.5358 28.0001C16.6678 29.6356 18.5767 30.712 20.7457 30.712C22.7716 30.7119 24.5694 29.7722 25.7203 28.3156L26.9772 29.5695C25.6965 31.1075 23.8439 32.1635 21.7408 32.4191V33.3654C21.7406 33.8531 21.3449 34.2482 20.857 34.2482C20.3693 34.2481 19.9735 33.8531 19.9733 33.3654V32.4435C17.5279 32.2142 15.3982 30.9065 14.0826 29.006C13.805 28.6048 13.9051 28.0542 14.3063 27.7765ZM24.0856 26.6866C23.2275 27.5365 22.0479 28.0626 20.7447 28.0626C18.1221 28.0624 15.9957 25.9363 15.9957 23.3136V18.6749C15.9957 18.657 15.9965 18.6391 15.9967 18.6212L24.0856 26.6866ZM31.8033 16.1486C32.2303 15.9124 32.7673 16.0673 33.0035 16.4943C33.726 17.8001 34.1097 19.2744 34.108 20.7814C34.1062 22.3358 33.6947 23.8554 32.9244 25.1896C32.6803 25.6119 32.1399 25.7567 31.7174 25.5128C31.295 25.2688 31.1504 24.7283 31.3942 24.3058C32.0104 23.2385 32.34 22.0229 32.3414 20.7794C32.3428 19.5739 32.0356 18.3944 31.4576 17.3497C31.2214 16.9228 31.3764 16.3848 31.8033 16.1486ZM28.442 18.2159C28.8791 17.9991 29.4097 18.1773 29.6266 18.6144C29.957 19.2803 30.1323 20.0187 30.1324 20.7736C30.1326 21.6325 29.9058 22.4701 29.482 23.2042C29.2381 23.6268 28.6976 23.7713 28.275 23.5275C27.8524 23.2835 27.7078 22.743 27.9518 22.3204C28.2214 21.8533 28.3659 21.32 28.3658 20.7736C28.3657 20.2933 28.2538 19.8233 28.0436 19.3995C27.8269 18.9625 28.0051 18.4329 28.442 18.2159ZM25.2711 19.671C25.8809 19.6711 26.3755 20.1657 26.3756 20.7755C26.3756 21.3854 25.881 21.8799 25.2711 21.88C24.6611 21.88 24.1666 21.3855 24.1666 20.7755C24.1667 20.1656 24.6612 19.671 25.2711 19.671ZM20.7447 13.9259C23.1062 13.9259 25.0653 15.6495 25.4322 17.9073C25.3796 17.9045 25.3265 17.9034 25.2731 17.9034C23.9643 17.9034 22.8622 18.7794 22.5162 19.9767L17.6227 15.0978C18.4575 14.3685 19.5492 13.926 20.7447 13.9259Z" fill="#FF3A2F"/>
<path fill-rule="evenodd" clip-rule="evenodd" d="M13.4085 14.0473C13.2323 14.2235 13.2323 14.5098 13.4085 14.686L31.295 32.5725C31.4716 32.7491 31.7575 32.7491 31.9341 32.5725L32.5728 31.9337C32.749 31.7571 32.749 31.4712 32.5728 31.295L30.4742 29.1964L29.1927 27.9145L27.9072 26.6294L26.6117 25.3335L24.327 23.0492L22.5202 21.2424L20.7012 19.423L19.4125 18.1347L14.6864 13.4086C14.5097 13.232 14.2238 13.232 14.0476 13.4086L13.4085 14.0473Z" fill="#FF3A2F"/>
</svg>
