<svg width="48" height="48" viewBox="0 0 48 48" fill="none" xmlns="http://www.w3.org/2000/svg">
<path d="M24 48C10.7452 48 -4.69686e-07 37.2548 -1.04907e-06 24C-1.62846e-06 10.7452 10.7452 3.34501e-06 24 2.76562e-06C37.2548 2.18624e-06 48 10.7452 48 24C48 37.2548 37.2548 48 24 48Z" fill="#F2F4F6"/>
<path d="M15.6629 18.3417C15.6629 15.7188 17.7892 13.5925 20.4121 13.5925C22.7737 13.5925 24.7326 15.3162 25.0995 17.5742C25.0466 17.5713 24.9934 17.5698 24.9398 17.5698C23.3538 17.5698 22.0682 18.8554 22.0682 20.4414C22.0682 22.0273 23.3538 23.3129 24.9398 23.3129C25.0106 23.3129 25.0808 23.3104 25.1503 23.3053C24.9833 25.7766 22.9257 27.7295 20.4121 27.7295C17.7892 27.7295 15.6629 25.6032 15.6629 22.9804V18.3417Z" fill="#737A87"/>
<path d="M24.9378 21.5468C25.5478 21.5468 26.0423 21.0523 26.0423 20.4423C26.0423 19.8324 25.5478 19.3379 24.9378 19.3379C24.3278 19.3379 23.8334 19.8324 23.8334 20.4423C23.8334 21.0523 24.3278 21.5468 24.9378 21.5468Z" fill="#737A87"/>
<path d="M28.1091 17.8823C28.5462 17.6655 29.0764 17.844 29.2933 18.2811C29.6237 18.9471 29.7995 19.6854 29.7996 20.4402C29.7998 21.2991 29.5724 22.1366 29.1486 22.8707C28.9046 23.2933 28.3643 23.4381 27.9417 23.1942C27.5191 22.9502 27.3742 22.4098 27.6182 21.9872C27.8879 21.52 28.0326 20.987 28.0325 20.4405C28.0324 19.9602 27.9206 19.4904 27.7103 19.0665C27.4934 18.6294 27.6719 18.0992 28.1091 17.8823Z" fill="#737A87"/>
<path d="M32.6708 16.1604C32.4346 15.7335 31.8969 15.5788 31.47 15.8151C31.043 16.0513 30.8884 16.589 31.1246 17.0159C31.7027 18.0607 32.0096 19.2405 32.0082 20.4462C32.0068 21.6897 31.6774 22.9049 31.0612 23.9723C30.8172 24.3949 30.962 24.9352 31.3846 25.1792C31.8072 25.4232 32.3476 25.2784 32.5916 24.8558C33.3618 23.5217 33.7735 22.0027 33.7753 20.4482C33.7771 18.9411 33.3934 17.4664 32.6708 16.1604Z" fill="#737A87"/>
<path d="M13.973 27.4434C14.3743 27.1657 14.9247 27.2658 15.2024 27.667C16.3345 29.3025 18.2433 30.3788 20.4123 30.3788C22.5813 30.3788 24.4901 29.3025 25.6222 27.667C25.8999 27.2658 26.4503 27.1657 26.8515 27.4434C27.2528 27.7212 27.3529 28.2716 27.0751 28.6728C25.7998 30.5153 23.7592 31.8002 21.4077 32.0859V33.0316C21.4077 33.5195 21.0121 33.9151 20.5241 33.9151C20.0361 33.9151 19.6406 33.5195 19.6406 33.0316V32.11C17.1951 31.8808 15.0651 30.5735 13.7494 28.6728C13.4717 28.2716 13.5718 27.7212 13.973 27.4434Z" fill="#737A87"/>
</svg>
