<svg class="icon" width="48" height="48" style="color: #666666; vertical-align: middle;fill: currentColor;overflow: hidden;" viewBox="0 0 1024 1024" version="1.1" xmlns="http://www.w3.org/2000/svg" p-id="11415">
    <rect y="1024" width="1024" height="1024" rx="4096" transform="rotate(-90 0 1024)" fill="#DEE3E9" fill-opacity="0.4" x="20"/>
    <path d="M191.872 728.224h640.288c58.176 0 88.384-29.248 88.384-88.736V269.216c0-59.456-30.208-88.704-88.384-88.704H191.808c-58.496 0-88.704 29.248-88.704 88.704v370.272c0 59.488 30.208 88.736 88.736 88.736z m320.448-94.112c-17.344 0-30.528-12.224-30.528-29.568V448l3.2-68.48-29.568 37.312-37.28 38.88a28.128 28.128 0 0 1-20.576 8.672c-16.064 0-27.648-11.552-27.648-27.328 0-8.32 2.24-14.432 8.032-20.544l110.272-111.872c7.68-7.712 14.784-11.232 24.096-11.232 9.632 0 16.704 3.84 24.096 11.232l110.272 111.872c5.76 6.08 8.32 12.192 8.32 20.576 0 15.744-11.84 27.296-27.936 27.296a28.16 28.16 0 0 1-20.576-8.64l-36.96-38.592-30.208-37.952 3.2 68.8v156.544c0 17.344-12.864 29.568-30.208 29.568z m163.936 206.272H347.424a29.088 29.088 0 1 1 0-58.176h328.832c16.064 0 29.248 13.184 29.248 29.248a29.28 29.28 0 0 1-29.248 28.928z" p-id="11416" transform="scale(0.55) translate(410 460)"></path>
</svg>